# xmcd
#
# Track frame offsets:
# 150
# 13575
# 24045
# 37682
# 65120
# 82750
# 97419
# 115752
# 135522
# 145222
# 164266
#
# Disc length: 2880 seconds
#
#
# Revision: 0
# Processed by: cddbd v1.5.1PL2 Copyright (c) Steve Scherf et al.
# Submitted via: FreeRIP 2.942 
#
DISCID=820b3e0b
DTITLE=The Gasoline Brothers - Hm!
DYEAR=2006
DGENRE=Alternative
TTITLE0=Stardust, Baby!
TTITLE1=Alien Spaceship Receiver
TTITLE2=Sleeping Pills and Asteroids
TTITLE3=Code 4
TTITLE4=Little Bear Berger
TTITLE5=Send The Husky
TTITLE6=Valentine's Day
TTITLE7=Brian Wilco
TTITLE8=Recorder
TTITLE9=Montgomery Hughes
TTITLE10=Taste
EXTD=Released by My First Sonny Weissmuller Recordings
EXTT0=
EXTT1=
EXTT2=
EXTT3=
EXTT4=
EXTT5=
EXTT6=
EXTT7=
EXTT8=
EXTT9=
EXTT10=
PLAYORDER=
